<svg version="1.1" id="Calque_1" xmlns="http://www.w3.org/2000/svg" xmlns:xlink="http://www.w3.org/1999/xlink" x="0px" y="0px"
	 viewBox="0 0 150.39 223.94" style="enable-background:new 0 0 150.39 223.94;" xml:space="preserve">
<style type="text/css">
	.st0{fill:#1D1D1D;stroke:#777777;stroke-width:1;stroke-miterlimit:10;}
	.st1{fill:#1D1D1D;stroke:#777777;stroke-width:1;stroke-miterlimit:10;}
</style>
<g>
  <g>
    <path class="st0" d="M84.3,3.36h43.07v147.66c0,20.7-5.76,37.31-17.29,49.8c-11.52,12.5-26.37,18.75-44.53,18.75
      c-19.53,0-34.72-5.81-45.56-17.43C9.16,190.52,3.74,174.36,3.74,153.65h43.21c0,20.12,6.2,30.18,18.6,30.18
      c12.5,0,18.75-11.62,18.75-34.86V3.36z"/>
  </g>
	<g>
		<g>
			<path class="st1" d="M104.3,3.36h43.07v147.66c0,20.7-5.76,37.31-17.29,49.8c-11.52,12.5-26.37,18.75-44.53,18.75
				c-19.53,0-34.72-5.81-45.56-17.43c-10.84-11.62-16.26-27.78-16.26-48.49h43.21c0,20.12,6.2,30.18,18.6,30.18
				c12.5,0,18.75-11.62,18.75-34.86V3.36z"/>
		</g>
	</g>
</g>
</svg>
